<svg xmlns="http://www.w3.org/2000/svg" xmlns:xlink="http://www.w3.org/1999/xlink" width="20px" height="16px" version="1.1" id="Слой_1" x="0px" y="0px" viewBox="0 0 20 16" style="enable-background:new 0 0 20 16;" xml:space="preserve">
<style type="text/css">
	.st0{fill:#41479B;}
	.st1{fill:#F5F5F5;}
	.st2{fill:#FF4B55;}
</style>
<path class="st0" d="M18.5,0h-17C0.7,0,0,0.8,0,1.8v12.3c0,1,0.7,1.8,1.5,1.8h17c0.8,0,1.5-0.8,1.5-1.8V1.8C20,0.8,19.3,0,18.5,0z"/>
<path class="st1" d="M20,1.5C19.9,0.7,19.2,0,18.5,0h-0.4l-6.4,5.1V0H8.3v5.1L1.9,0H1.5C0.8,0,0.1,0.7,0,1.5l5.5,4.4H0v4.2h5.5  L0,14.5C0.1,15.3,0.8,16,1.5,16h0.4l6.4-5.1V16h3.4v-5.1l6.4,5.1h0.4c0.7,0,1.4-0.7,1.5-1.5l-5.5-4.4H20V5.9h-5.5L20,1.5z"/>
<g>
	<polygon class="st2" points="11,0 9,0 9,6.7 0,6.7 0,9.3 9,9.3 9,16 11,16 11,9.3 20,9.3 20,6.7 11,6.7  "/>
	<path class="st2" d="M1,15.9l7.3-5.8H7l-6.6,5.3C0.5,15.6,0.7,15.8,1,15.9z"/>
	<path class="st2" d="M13.5,10.1h-1.3l7.1,5.6c0.2-0.2,0.4-0.4,0.5-0.6L13.5,10.1z"/>
	<path class="st2" d="M0.2,1l6.2,4.9h1.3l-7-5.5C0.4,0.5,0.3,0.8,0.2,1z"/>
	<path class="st2" d="M13,5.9l6.6-5.3c-0.2-0.2-0.4-0.4-0.6-0.5l-7.3,5.8H13z"/>
</g>
</svg>