<svg xmlns="http://www.w3.org/2000/svg" xmlns:xlink="http://www.w3.org/1999/xlink" width="200px" version="1.1" id="Layer_1" x="0px" y="0px" viewBox="0 0 200 55" style="enable-background:new 0 0 200 55;" xml:space="preserve">
<style type="text/css">
	.st0{fill:url(#SVGID_1_);}
	.st1{opacity:0.38;fill:url(#SVGID_2_);enable-background:new    ;}
	.st2{fill:url(#SVGID_3_);}
	.st3{fill:url(#SVGID_4_);}
	.st4{fill:url(#SVGID_5_);}
	.st5{fill:url(#SVGID_6_);}
	.st6{fill:url(#SVGID_7_);}
	.st7{fill:url(#SVGID_8_);}
	.st8{fill:url(#SVGID_9_);}
</style>
<linearGradient id="SVGID_1_" gradientUnits="userSpaceOnUse" x1="-33556.3984" y1="-95.4665" x2="-29020.9766" y2="-95.4665" gradientTransform="matrix(-5.223609e-03 0 0 9.566667e-02 -131.8189 26.233)">
	<stop offset="0" style="stop-color:#384DFF"/>
	<stop offset="1" style="stop-color:#24CDFF"/>
</linearGradient>
<polygon class="st0" points="43.5,32 32.4,13 19.7,2.2 33.7,32 "/>
<linearGradient id="SVGID_2_" gradientUnits="userSpaceOnUse" x1="-31482.459" y1="-69.8568" x2="-25362.832" y2="-69.8568" gradientTransform="matrix(-5.223609e-03 0 0 9.566667e-02 -131.8189 26.233)">
	<stop offset="0" style="stop-color:#384DFF"/>
	<stop offset="1" style="stop-color:#24CDFF"/>
</linearGradient>
<polygon class="st1" points="18.4,4.1 0.7,35 32.6,35 15.1,29.4 23.7,18.8 "/>
<g>
	<g>
		<linearGradient id="SVGID_3_" gradientUnits="userSpaceOnUse" x1="111.6687" y1="31.6895" x2="111.6687" y2="8.5693">
			<stop offset="0" style="stop-color:#384DFF"/>
			<stop offset="0.1412" style="stop-color:#3756FF"/>
			<stop offset="0.3759" style="stop-color:#3370FF"/>
			<stop offset="0.6753" style="stop-color:#2C99FF"/>
			<stop offset="0.9944" style="stop-color:#24CDFF"/>
		</linearGradient>
		<path class="st2" d="M89.5,20.1c0,2.9,0.7,5.1,2.1,6.7c1.5,1.6,3.3,2.4,5.5,2.4c2.8,0,4.9-1.2,6.4-3.6l2.1,1.5    c-1.8,3-4.7,4.6-8.6,4.6c-3.2,0-5.7-1-7.6-3.1c-1.9-2-2.9-4.8-2.9-8.4c0-3.6,1-6.4,2.9-8.5c1.9-2.1,4.4-3.2,7.5-3.2    c3.8,0,6.6,1.5,8.5,4.5l-2.1,1.5c-1.5-2.4-3.6-3.5-6.4-3.5c-2.2,0-4.1,0.8-5.5,2.4C90.2,15,89.5,17.3,89.5,20.1z"/>
		<linearGradient id="SVGID_4_" gradientUnits="userSpaceOnUse" x1="111.6687" y1="31.6895" x2="111.6687" y2="8.5693">
			<stop offset="0" style="stop-color:#384DFF"/>
			<stop offset="0.1412" style="stop-color:#3756FF"/>
			<stop offset="0.3759" style="stop-color:#3370FF"/>
			<stop offset="0.6753" style="stop-color:#2C99FF"/>
			<stop offset="0.9944" style="stop-color:#24CDFF"/>
		</linearGradient>
		<path class="st3" d="M119.3,31.7c-3.2,0-5.7-1-7.6-3.1c-1.9-2.1-2.8-4.9-2.8-8.4c0-3.5,0.9-6.3,2.8-8.4c1.9-2.1,4.4-3.1,7.6-3.1    s5.7,1,7.6,3.1c1.9,2.1,2.9,4.9,2.9,8.4s-1,6.4-2.9,8.4C125,30.6,122.5,31.7,119.3,31.7z M113.8,26.8c1.4,1.7,3.2,2.5,5.5,2.5    s4.2-0.8,5.5-2.5c1.4-1.7,2.1-3.9,2.1-6.7c0-2.8-0.7-5-2.1-6.6s-3.2-2.5-5.6-2.5c-2.3,0-4.2,0.8-5.5,2.5c-1.4,1.6-2.1,3.8-2.1,6.6    C111.7,22.9,112.4,25.1,113.8,26.8z"/>
		<linearGradient id="SVGID_5_" gradientUnits="userSpaceOnUse" x1="111.6687" y1="31.6895" x2="111.6687" y2="8.5693">
			<stop offset="0" style="stop-color:#384DFF"/>
			<stop offset="0.1412" style="stop-color:#3756FF"/>
			<stop offset="0.3759" style="stop-color:#3370FF"/>
			<stop offset="0.6753" style="stop-color:#2C99FF"/>
			<stop offset="0.9944" style="stop-color:#24CDFF"/>
		</linearGradient>
		<path class="st4" d="M133.9,9.1h2.7v22.1h-2.7V9.1z"/>
	</g>
</g>
<g>
	<g>
		<linearGradient id="SVGID_6_" gradientUnits="userSpaceOnUse" x1="161.1133" y1="31.8594" x2="161.1133" y2="8.3994">
			<stop offset="0" style="stop-color:#3E4150"/>
			<stop offset="0.3135" style="stop-color:#464A59"/>
			<stop offset="0.833" style="stop-color:#5B6173"/>
			<stop offset="0.9944" style="stop-color:#63697C"/>
		</linearGradient>
		<path class="st5" d="M159.7,31.9h-0.2l-15.1-17v16.3h-2.7V8.4h0.2l15.1,17V9.1h2.7V31.9z"/>
		<linearGradient id="SVGID_7_" gradientUnits="userSpaceOnUse" x1="161.1133" y1="31.8594" x2="161.1133" y2="8.3994">
			<stop offset="0" style="stop-color:#3E4150"/>
			<stop offset="0.3135" style="stop-color:#464A59"/>
			<stop offset="0.833" style="stop-color:#5B6173"/>
			<stop offset="0.9944" style="stop-color:#63697C"/>
		</linearGradient>
		<path class="st6" d="M180.6,25.2c0,2.1-0.8,3.7-2.4,4.8c-1.6,1.1-3.6,1.7-6.1,1.7c-1.6,0-3.2-0.3-4.8-0.9c-1.5-0.6-2.7-1.6-3.6-3    l1.8-1.8c1.5,2.1,3.7,3.2,6.6,3.2c1.7,0,3.1-0.3,4.1-1c1-0.7,1.5-1.7,1.5-2.9c0-1.1-0.4-2-1.2-2.6c-0.8-0.6-2.1-1.1-4.1-1.6    l-2.7-0.7c-0.7-0.2-1.4-0.5-2.2-0.8c-1.1-0.5-1.9-1.2-2.4-1.9c-0.5-0.8-0.8-1.8-0.9-3.2c0-1.8,0.7-3.2,2.1-4.2    c1.4-1.1,3.3-1.6,5.7-1.6c3.3,0,5.9,0.9,7.6,2.6l-1.7,2c-1.7-1.5-3.6-2.2-5.9-2.2c-1.5,0-2.8,0.3-3.7,1c-0.9,0.6-1.4,1.4-1.4,2.4    c0,1.2,0.4,2,1.2,2.5c0.8,0.5,2.2,1,4.1,1.5l1.8,0.5c1.5,0.4,2.6,0.8,3.2,1.2c1.1,0.6,1.9,1.2,2.3,1.9    C180.3,22.9,180.6,24,180.6,25.2z"/>
	</g>
</g>
<g>
	<g>
		<linearGradient id="SVGID_8_" gradientUnits="userSpaceOnUse" x1="65.8457" y1="31.4814" x2="65.8457" y2="9.3813">
			<stop offset="0" style="stop-color:#3E4150"/>
			<stop offset="0.3135" style="stop-color:#464A59"/>
			<stop offset="0.833" style="stop-color:#5B6173"/>
			<stop offset="0.9944" style="stop-color:#63697C"/>
		</linearGradient>
		<path class="st7" d="M61.8,31.5H47.5V9.4h14v2.4H50.2V19h9.4v2.3h-9.4v7.8h11.6V31.5z"/>
		<linearGradient id="SVGID_9_" gradientUnits="userSpaceOnUse" x1="65.8457" y1="31.4814" x2="65.8457" y2="9.3813">
			<stop offset="0" style="stop-color:#3E4150"/>
			<stop offset="0.3135" style="stop-color:#464A59"/>
			<stop offset="0.833" style="stop-color:#5B6173"/>
			<stop offset="0.9944" style="stop-color:#63697C"/>
		</linearGradient>
		<path class="st8" d="M67.7,31.5h-3.1l8.3-11.4L65.3,9.4h3.3l5.8,8.8l6-8.8h3.1L75.9,20l8.3,11.5h-3.3l-6.6-9.4L67.7,31.5z"/>
	</g>
</g>
</svg>