<svg xmlns="http://www.w3.org/2000/svg" xmlns:xlink="http://www.w3.org/1999/xlink" width="75px" height="75px" version="1.1" id="Слой_1" x="0px" y="0px" viewBox="0 0 500 500" style="enable-background:new 0 0 500 500;" xml:space="preserve">
<style type="text/css">
	.st0{fill:url(#SVGID_1_);enable-background:new    ;}
	.st1{fill:url(#SVGID_2_);}
	.st2{opacity:0.2;}
	.st3{fill:#FFFFFF;}
</style>
<linearGradient id="SVGID_1_" gradientUnits="userSpaceOnUse" x1="467.0001" y1="467.0001" x2="32.1428" y2="32.1428">
	<stop offset="0" style="stop-color:#E1E8FF"/>
	<stop offset="1" style="stop-color:#FFFFFF"/>
</linearGradient>
<path class="st0" d="M389.7,499.1H109.4C49.2,499.1,0,449.9,0,389.7V109.4C0,49.2,49.2,0,109.4,0h280.3  c60.2,0,109.4,49.2,109.4,109.4v280.3C499.1,449.9,449.9,499.1,389.7,499.1z"/>
<title>Монтажная область 1</title>
<linearGradient id="SVGID_2_" gradientUnits="userSpaceOnUse" x1="79.8571" y1="246.2143" x2="419.8571" y2="246.2143">
	<stop offset="0" style="stop-color:#0CA0DB"/>
	<stop offset="1" style="stop-color:#3576BC"/>
</linearGradient>
<ellipse class="st1" cx="249.9" cy="246.2" rx="170" ry="174.6"/>
<g>
	<g class="st2">
		<path d="M349.3,183.2c0,22-17.8,43.2-43.6,46.1c-4.5,0.5-9.3,0.5-13.9,1.3c-15,2.9-21.2,19.4-11.3,30.1c4,4.4,9.6,6,15.8,6.5    c6.2,0.5,13,1,19,2.9c19.2,6,30.3,18.8,33.4,37.2c4.2,25.1-13.9,47.4-39.1,52.9c-27.5,5.8-56-11.5-61.1-37.2    c-2.3-11.3,0.3-21.5,5.7-31.4c2.3-4.2,4.2-8.4,4-13.1c-0.3-7.6-5.7-14.1-14.2-16.8c-7.1-2.4-15.6,0-20.4,5.8    c-3.1,3.7-5.9,7.9-9.1,11.5c-13.3,14.7-30.3,19.6-50.1,15.4s-32.8-16-37.9-34.3c-7.1-26.2,10.8-52.3,39.1-57.3    c20.9-3.7,38.2,2.6,50.9,18.6c2.8,3.4,5.1,7.1,8.2,10.2c10.5,9.7,29.2,5,32.8-8.4c1.4-5.2,0.3-10.2-2.3-14.7    c-4.8-8.4-8.2-17.3-7.9-27.2c0.8-22.5,20.1-41.6,43.9-44.5c26.9-3.1,51.8,13.1,56.9,38.2C348.7,177.4,349,180.3,349.3,183.2z"/>
	</g>
	<g>
		<g>
			<path class="st3" d="M343.6,177.9c0,22-17.8,43.2-43.6,46.1c-4.5,0.5-9.3,0.5-13.9,1.3c-15,2.9-21.2,19.4-11.3,30.1     c4,4.4,9.6,6,15.8,6.5s13,1,19,2.9c19.2,6,30.3,18.8,33.4,37.2c4.2,25.1-13.9,47.4-39.1,52.9c-27.5,5.8-56-11.5-61.1-37.2     c-2.3-11.3,0.3-21.5,5.7-31.4c2.3-4.2,4.2-8.4,4-13.1c-0.3-7.6-5.7-14.1-14.2-16.8c-7.1-2.4-15.6,0-20.4,5.8     c-3.1,3.7-5.9,7.9-9.1,11.5c-13.3,14.7-30.3,19.6-50.1,15.4s-32.8-16-37.9-34.3c-7.1-26.2,10.8-52.3,39.1-57.3     c20.9-3.7,38.2,2.6,50.9,18.6c2.8,3.4,5.1,7.1,8.2,10.2c10.5,9.7,29.2,5,32.8-8.4c1.4-5.2,0.3-10.2-2.3-14.7     c-4.8-8.4-8.2-17.3-7.9-27.2c0.8-22.5,20.1-41.6,43.9-44.5c26.9-3.1,51.8,13.1,56.9,38.2C343.1,172.2,343.3,175.1,343.6,177.9z"/>
		</g>
	</g>
</g>
</svg>