<?xml version="1.0" encoding="utf-8"?>
<!-- Generator: Adobe Illustrator 22.0.1, SVG Export Plug-In . SVG Version: 6.00 Build 0)  -->
<svg width="75px" height="75px" version="1.1" id="Слой_1" xmlns="http://www.w3.org/2000/svg" xmlns:xlink="http://www.w3.org/1999/xlink" x="0px" y="0px"
	 viewBox="0 0 75 75" style="enable-background:new 0 0 75 75;" xml:space="preserve">
<style type="text/css">
	.st0{fill:url(#SVGID_1_);enable-background:new    ;}
	.st1{fill:url(#Fill-1_1_);enable-background:new    ;}
	.st2{fill:#EFA930;}
	.st3{fill:#73B3E5;}
	.st4{fill:#53BDB1;}
</style>
<linearGradient id="SVGID_1_" gradientUnits="userSpaceOnUse" x1="70.1703" y1="70.1703" x2="4.8297" y2="4.8297">
	<stop  offset="0" style="stop-color:#E1E8FF"/>
	<stop  offset="1" style="stop-color:#FFFFFF"/>
</linearGradient>
<path class="st0" d="M58.6,75H16.4C7.4,75,0,67.6,0,58.6V16.4C0,7.4,7.4,0,16.4,0h42.1C67.6,0,75,7.4,75,16.4v42.1
	C75,67.6,67.6,75,58.6,75z"/>
<linearGradient id="Fill-1_1_" gradientUnits="userSpaceOnUse" x1="14.875" y1="36.5625" x2="60.125" y2="36.5625">
	<stop  offset="0" style="stop-color:#E1E8FF"/>
	<stop  offset="1" style="stop-color:#FFFFFF"/>
</linearGradient>
<path id="Fill-1" class="st1" d="M37.5,57.3c0.1,0,0.2-0.1,0.3-0.2c2.7-1.6,5.2-3.6,7.5-5.7c0.2-0.1,0.3-0.3,0.3-0.5
	c0.2-0.3,0.3-0.6,0.4-0.9c1.1-2.3,1.3-4.7,0.6-7.1c-1.4-4.7-5.9-7.5-10.4-6.9c-1.3,0.2-2.5,0.6-3.6,1.2c-2.1,1.2-4.4,1.7-6.9,1.5
	c-1.2-0.1-2.4-0.4-3.5-0.9c-0.9-0.4-1.7-0.9-2.4-1.5c0,0-0.1-0.1-0.2-0.1c0,0.1,0,0.2,0.1,0.2c1,2.5,2.2,4.9,3.6,7.1
	c1.5,2.4,3.3,4.7,5.3,6.8c2,2.1,4.2,3.9,6.5,5.5C36.2,56.5,37.2,57.1,37.5,57.3 M48.8,47.5c0.1-0.1,0.2-0.2,0.2-0.2
	c0.9-1.1,1.7-2.2,2.4-3.4c2.7-4.3,4.6-8.8,5.7-13.8c0.4-1.7,0.6-3.4,0.8-5.1c0.1-1.2,0.2-2.3,0.2-3.5c0-0.1,0-0.2,0-0.2L57.7,21
	c-0.9-0.5-1.8-1-2.7-1.4c-1.3-0.6-2.7-1.2-4.1-1.7c-1.7-0.5-3.4-0.6-5.2-0.2c-4.9,1.2-8.1,6.1-7.2,11.2c0.5,2.8,2,5,4.4,6.5
	c0.2,0.1,0.3,0.2,0.5,0.3c1.7,1.1,3.1,2.5,4.1,4.4c1,1.9,1.5,4,1.4,6.1C48.9,46.6,48.9,47,48.8,47.5 M17,21.2v0.3
	c0,1.6,0.1,3.2,0.3,4.8c0.2,1.4,0.4,2.9,0.7,4.3c0.1,0.2,0.1,0.5,0.2,0.7c1.9,4.2,6.4,6.4,10.9,5.4c3.4-0.8,6.2-3.4,7.1-6.8
	c0.3-0.9,0.3-1.9,0.4-2.9c0-0.6,0.1-1.3,0.2-1.9c0.7-3.9,3.3-7,6.8-8.6c0.2-0.1,0.4-0.2,0.6-0.2c0,0,0.1,0,0.1-0.1
	c-0.6-0.2-3.9-0.5-5.9-0.6c-4.3-0.1-8.6,0.5-12.7,1.8C22.6,18.3,19.7,19.6,17,21.2 M37.5,59.5l-0.3-0.1c-10.1-6-17.8-15.9-20.9-27.8
	c-0.5-1.9-0.9-3.8-1.1-5.7C15,24,14.9,22,14.9,20.1c0-0.3,0-0.3,0.3-0.4c3.8-2.2,7.8-3.8,12.1-4.8c1.6-0.4,3.2-0.7,4.8-0.9
	c2.2-0.3,4.4-0.4,6.6-0.3c1.3,0,2.5,0.1,3.7,0.2c6.2,0.7,12,2.6,17.5,5.7c0.1,0,0.2,0.1,0.2,0.1c0.1,0,0.1,0.1,0.1,0.2v0.3
	c0,1.1-0.1,2.3-0.2,3.4c-0.1,1.6-0.3,3.2-0.6,4.8c-0.6,3.4-1.7,6.8-3.1,9.9C54,43.4,51,48,47.1,51.9c-2.8,2.9-5.9,5.3-9.3,7.3
	C37.7,59.3,37.6,59.4,37.5,59.5"/>
<path id="Fill-4" class="st2" d="M17,21.2c2.8-1.6,5.7-2.9,8.7-3.8c4.1-1.3,8.4-1.8,12.7-1.8c2,0,5.4,0.4,5.9,0.6c0,0,0,0.1-0.1,0.1
	c-0.2,0.1-0.4,0.2-0.6,0.2c-3.6,1.5-6.1,4.7-6.8,8.6c-0.1,0.6-0.2,1.3-0.2,1.9c0,1-0.1,1.9-0.4,2.9c-1,3.4-3.7,6.1-7.1,6.8
	c-4.4,1-8.9-1.2-10.9-5.4c-0.1-0.2-0.2-0.5-0.2-0.7c-0.3-1.4-0.6-2.9-0.7-4.3c-0.2-1.6-0.3-3.2-0.3-4.8C17,21.4,17,21.3,17,21.2z"/>
<path id="Fill-6" class="st3" d="M48.9,46.3c0-0.4-0.3-4.2-1.4-6.1c-1-1.8-2.3-3.3-4.1-4.4c-0.2-0.1-0.3-0.2-0.5-0.3
	c-2.4-1.5-3.9-3.7-4.4-6.5c-0.9-5.1,2.2-10,7.2-11.2c1.7-0.4,3.5-0.4,5.2,0.2c1.4,0.4,2.7,1,4.1,1.7c0.9,0.4,1.8,0.9,2.7,1.4
	c0.1,0.1,0.2,0.1,0.3,0.2c0,0.1,0,0.2,0,0.2c0,1.2-0.1,2.3-0.2,3.5c-0.1,1.7-0.4,3.4-0.8,5.1c-1.1,5-2.9,9.5-5.7,13.8
	c-0.8,1.2-1.6,2.3-2.4,3.4c-0.1,0.1-0.1,0.2-0.3,0.2C48.9,47,48.9,46.7,48.9,46.3z"/>
<path id="Fill-8" class="st4" d="M37.5,57.3c-0.3-0.1-1.3-0.7-2.4-1.5c-2.4-1.6-4.5-3.4-6.5-5.5c-2-2.1-3.8-4.3-5.3-6.8
	c-1.4-2.3-2.6-4.6-3.6-7.1c0-0.1,0-0.1-0.1-0.2c0.1,0.1,0.2,0.1,0.2,0.1c0.8,0.6,1.6,1.1,2.4,1.5c1.1,0.5,2.2,0.8,3.5,0.9
	c2.4,0.2,4.7-0.3,6.9-1.5c1.1-0.6,2.3-1.1,3.6-1.2c4.5-0.6,9,2.1,10.4,6.9c0.7,2.4,0.5,4.8-0.6,7.1c-0.2,0.3-0.3,0.6-0.4,0.9
	c-0.1,0.2-0.2,0.4-0.3,0.5c-2.3,2.2-4.8,4.1-7.5,5.7C37.7,57.2,37.6,57.2,37.5,57.3L37.5,57.3z"/>
</svg>
