<svg xmlns="http://www.w3.org/2000/svg" xmlns:xlink="http://www.w3.org/1999/xlink" width="75px" height="75px" version="1.1" id="Слой_1" x="0px" y="0px" viewBox="0 0 75 75" style="enable-background:new 0 0 75 75;" xml:space="preserve">
<style type="text/css">
	.st0{fill:url(#SVGID_1_);enable-background:new    ;}
	.st1{fill:#F4BA1F;}
	.st2{fill:#FFFFFF;}
</style>
<linearGradient id="SVGID_1_" gradientUnits="userSpaceOnUse" x1="70.1703" y1="70.1703" x2="4.8297" y2="4.8297">
	<stop offset="0" style="stop-color:#E1E8FF"/>
	<stop offset="1" style="stop-color:#FFFFFF"/>
</linearGradient>
<path class="st0" d="M58.6,75H16.4C7.4,75,0,67.6,0,58.6V16.4C0,7.4,7.4,0,16.4,0h42.1C67.6,0,75,7.4,75,16.4v42.1  C75,67.6,67.6,75,58.6,75z"/>
<ellipse class="st1" cx="37.4" cy="36.9" rx="25.5" ry="26.1"/>
<path class="st2" d="M29.1,20.8c1.1,0.3,2.2,0.5,3.3,0.8c1.1,0.3,2.2,0.5,3.3,0.8c0.3,0.1,0.4,0,0.5-0.3c0.4-1.7,0.8-3.3,1.2-5  c0.1-0.3,0.2-0.4,0.5-0.3c1,0.3,1.9,0.5,2.9,0.7c0.3,0.1,0.3,0.2,0.2,0.4c-0.4,1.6-0.8,3.3-1.2,4.9c0,0.1,0,0.2-0.1,0.4  c0.8,0.2,1.7,0.4,2.5,0.6c0.1,0,0.2-0.2,0.3-0.3c0.3-1.3,0.6-2.5,1-3.8c0.1-0.4,0.2-0.8,0.3-1.2c0-0.2,0.1-0.3,0.3-0.2  c1,0.3,2,0.5,3.1,0.8c0.1,0,0.1,0.1,0.2,0.1c-0.3,1.3-0.6,2.5-0.9,3.7c-0.1,0.5-0.2,1-0.4,1.5c-0.1,0.3,0,0.4,0.3,0.5  c1.1,0.5,2.2,1,3.3,1.5c1,0.6,1.9,1.4,2.6,2.4c0.9,1.5,1,3.1,0.6,4.7c-0.3,1.1-0.7,2.1-1.5,2.9c-0.6,0.6-1.4,1-2.2,1.3  c-0.1,0-0.2,0.1-0.4,0.1c0.4,0.3,0.8,0.5,1.2,0.8c1.2,0.9,2,2,2.4,3.4c0.2,1.1,0.1,2.3-0.2,3.4c-0.4,1.4-0.9,2.6-1.8,3.7  c-1.1,1.3-2.5,2-4.1,2.2c-2.1,0.3-4.1,0.1-6.1-0.2c-0.3-0.1-0.5,0-0.6,0.3c-0.4,1.6-0.8,3.3-1.2,4.9c-0.1,0.4-0.1,0.5-0.6,0.3  c-0.9-0.2-1.9-0.5-2.8-0.7c-0.3-0.1-0.3-0.2-0.2-0.4c0.4-1.7,0.8-3.4,1.3-5c0-0.2,0.1-0.3-0.1-0.4c-0.8-0.2-1.6-0.4-2.5-0.6  c-0.2,0.9-0.5,1.8-0.7,2.7c-0.2,0.9-0.5,1.8-0.7,2.7c-0.1,0.2-0.1,0.3-0.4,0.2c-1-0.3-2-0.5-3-0.7c-0.3-0.1-0.3-0.2-0.2-0.4  c0.4-1.7,0.8-3.4,1.3-5c0-0.1,0.1-0.2,0.1-0.4c-2.3-0.6-4.6-1.2-7-1.8c0.2-0.4,0.3-0.7,0.5-1.1c0.4-0.9,0.8-1.8,1.1-2.6  c0.1-0.3,0.2-0.3,0.5-0.3c0.7,0.2,1.5,0.4,2.2,0.5c0.8,0.2,1.4-0.2,1.5-0.9c1.3-5.1,2.6-10.2,3.8-15.4c0.2-0.8-0.3-1.7-1.2-2  c-0.9-0.3-1.8-0.5-2.6-0.7c-0.2,0-0.3-0.1-0.2-0.3c0.3-1.1,0.6-2.3,0.9-3.4C29,20.9,29,20.8,29.1,20.8z M34.2,45.5  c0.1,0,0.2,0.1,0.2,0.1c1.6,0.4,3.3,0.9,5,1c1.2,0.1,2.3,0.1,3.4-0.3c1.9-0.6,2.7-3.1,1.6-4.7c-0.5-0.8-1.3-1.3-2.1-1.8  c-1.8-1-3.9-1.4-5.9-1.8c-0.3-0.1-0.3,0-0.4,0.3c-0.2,1-0.5,1.9-0.7,2.9C34.9,42.6,34.5,44,34.2,45.5z M42.6,35.3  c0.2,0,0.7-0.1,1.1-0.2c1.9-0.4,2.9-2.6,1.9-4.3c-0.5-0.9-1.4-1.5-2.3-1.9c-1.4-0.6-2.8-0.9-4.3-1.3c-0.3-0.1-0.4,0-0.5,0.3  c-0.5,2.1-1,4.1-1.6,6.2c-0.1,0.2,0,0.3,0.2,0.4c0.4,0.1,0.7,0.2,1.1,0.3C39.7,35,41,35.3,42.6,35.3z"/>
</svg>