<?xml version="1.0" encoding="utf-8"?>
<!-- Generator: Adobe Illustrator 22.0.1, SVG Export Plug-In . SVG Version: 6.00 Build 0)  -->
<svg width="75px" height="75px" version="1.1" id="Слой_1" xmlns="http://www.w3.org/2000/svg" xmlns:xlink="http://www.w3.org/1999/xlink" x="0px" y="0px"
	 viewBox="0 0 500 500" style="enable-background:new 0 0 500 500;" xml:space="preserve">
<style type="text/css">
	.st0{fill:url(#SVGID_1_);enable-background:new    ;}
	.st1{fill:url(#SVGID_2_);}
	.st2{opacity:0.2;}
	.st3{fill:#FFFFFF;}
</style>
<linearGradient id="SVGID_1_" gradientUnits="userSpaceOnUse" x1="467.0001" y1="467.0001" x2="32.1428" y2="32.1428">
	<stop  offset="0" style="stop-color:#E1E8FF"/>
	<stop  offset="1" style="stop-color:#FFFFFF"/>
</linearGradient>
<path class="st0" d="M389.7,499.1H109.4C49.2,499.1,0,449.9,0,389.7V109.4C0,49.2,49.2,0,109.4,0h280.3
	c60.2,0,109.4,49.2,109.4,109.4v280.3C499.1,449.9,449.9,499.1,389.7,499.1z"/>
<title>Монтажная область 1</title>
<linearGradient id="SVGID_2_" gradientUnits="userSpaceOnUse" x1="79.8571" y1="246.2143" x2="419.8571" y2="246.2143">
	<stop  offset="0" style="stop-color:#41BAD3"/>
	<stop  offset="1" style="stop-color:#169CD8"/>
</linearGradient>
<ellipse class="st1" cx="249.9" cy="246.2" rx="170" ry="174.6"/>
<g>
	<g class="st2">
		<path d="M195.7,227.8l11.1,10.4c3.4,3.1,8.4,3.1,11.8,0l22.4-20.8c6.3-5.8,15.7-5.8,22,0l22.4,20.8c3.4,3.1,8.4,3.1,11.8,0
			l11.1-10.4l16.9-16.9c3.1-3.1,3.1-8.4,0-11.8l-55.7-55.8c-9.7-9.7-25.3-9.7-35,0L178.8,199c-3.4,3.4-3.4,8.4,0,11.8L195.7,227.8z"
			/>
		<path d="M350.4,236l-13.8-13c-3.4-3.1-8.4-3.1-11.8,0l-22.4,20.8c-6.3,5.8-15.7,5.8-22,0L258,222.9c-3.4-3.1-8.4-3.1-11.8,0
			l-22.4,20.8c-6.3,5.8-15.7,5.8-22,0l-22.4-20.8c-3.4-3.1-8.4-3.1-11.8,0L155,234.8c-11.6,10.9-23.9,15.7-8,31.6l87.6,87.6
			c9.7,9.7,25.3,9.7,35,0l87.6-87.6C372.1,250.9,361.5,246.3,350.4,236z"/>
	</g>
	<g>
		<g>
			<path class="st3" d="M190.9,222.9l11.1,10.4c3.4,3.1,8.4,3.1,11.8,0l22.4-20.8c6.3-5.8,15.7-5.8,22,0l22.4,20.8
				c3.4,3.1,8.4,3.1,11.8,0l11.1-10.4l16.9-16.9c3.1-3.1,3.1-8.4,0-11.8l-55.7-55.8c-9.7-9.7-25.3-9.7-35,0L174,194.2
				c-3.4,3.4-3.4,8.4,0,11.8L190.9,222.9z"/>
			<path class="st3" d="M345.6,231.1l-13.8-13c-3.4-3.1-8.4-3.1-11.8,0l-22.4,20.8c-6.3,5.8-15.7,5.8-22,0l-22.4-20.8
				c-3.4-3.1-8.4-3.1-11.8,0l-22.4,20.8c-6.3,5.8-15.7,5.8-22,0l-22.4-20.8c-3.4-3.1-8.4-3.1-11.8,0l-12.5,11.8
				c-11.6,10.9-23.9,15.7-8,31.6l87.6,87.6c9.7,9.7,25.3,9.7,35,0l87.6-87.6C367.3,246.1,356.7,241.5,345.6,231.1z"/>
		</g>
	</g>
</g>
</svg>
