<svg xmlns="http://www.w3.org/2000/svg" xmlns:xlink="http://www.w3.org/1999/xlink" width="75px" height="75px" version="1.1" id="Слой_1" x="0px" y="0px" viewBox="0 0 75 75" style="enable-background:new 0 0 75 75;" xml:space="preserve">
<style type="text/css">
	.st0{fill:url(#SVGID_1_);enable-background:new    ;}
	.st1{fill:#84D12E;}
	.st2{fill:#FFFFFF;}
</style>
<linearGradient id="SVGID_1_" gradientUnits="userSpaceOnUse" x1="70.1703" y1="70.1703" x2="4.8297" y2="4.8297">
	<stop offset="0" style="stop-color:#E1E8FF"/>
	<stop offset="1" style="stop-color:#FFFFFF"/>
</linearGradient>
<path class="st0" d="M58.6,75H16.4C7.4,75,0,67.6,0,58.6V16.4C0,7.4,7.4,0,16.4,0h42.1C67.6,0,75,7.4,75,16.4v42.1  C75,67.6,67.6,75,58.6,75z"/>
<path class="st1" d="M37.5,63C23.3,62.9,12,51.3,12,36.9c0-14.5,11.5-26.1,25.5-26C51.7,11,63.1,22.6,63,37  C62.9,51.5,51.5,63.1,37.5,63z M60.5,36.9c0-13.1-10.3-23.6-23.1-23.6c-12.7,0-23,10.5-23,23.5c0,13,10.3,23.6,23,23.6  C50.2,60.5,60.5,50,60.5,36.9z"/>
<path class="st1" d="M58.1,37.1c-0.2,11.7-9.5,21.2-20.8,21c-11.5-0.2-20.7-9.8-20.5-21.4c0.2-11.7,9.4-21,20.7-20.9  C49.1,15.9,58.1,25.4,58.1,37.1z"/>
<path class="st2" d="M23.8,27.7c0.9-0.2,1.9-0.5,2.8-0.7c1-0.2,1.9-0.5,2.9-0.7c0.2-0.1,0.3-0.1,0.2-0.4c-0.4-1.4-0.7-2.9-1.1-4.3  c-0.1-0.2,0-0.3,0.2-0.4c0.8-0.2,1.7-0.4,2.5-0.6c0.2-0.1,0.3,0,0.4,0.2c0.4,1.4,0.7,2.8,1.1,4.2c0,0.1,0.1,0.2,0.1,0.3  c0.7-0.2,1.4-0.4,2.1-0.6c0.1,0,0.1-0.2,0.1-0.3c-0.3-1.1-0.6-2.2-0.9-3.3c-0.1-0.3-0.2-0.7-0.3-1c0-0.2,0-0.2,0.2-0.3  c0.9-0.2,1.7-0.4,2.6-0.7c0.1,0,0.1,0,0.2,0c0.3,1.1,0.6,2.2,0.8,3.2c0.1,0.4,0.2,0.9,0.3,1.3c0.1,0.3,0.2,0.3,0.4,0.3  c1-0.1,2.1-0.2,3.1-0.2c1,0,2,0.3,2.9,0.8c1.3,0.8,2,1.9,2.4,3.3c0.3,0.9,0.3,1.9,0,2.8c-0.2,0.7-0.6,1.4-1.1,1.9  c-0.1,0.1-0.1,0.2-0.3,0.3c0.4,0,0.8,0.1,1.2,0.1c1.3,0.2,2.3,0.6,3.2,1.6c0.7,0.8,1,1.7,1.3,2.6c0.3,1.2,0.4,2.4,0.1,3.6  c-0.3,1.4-1.1,2.5-2.2,3.4c-1.4,1.1-3,1.8-4.7,2.3c-0.3,0.1-0.4,0.2-0.3,0.5c0.4,1.4,0.7,2.8,1.1,4.2c0.1,0.4,0.1,0.4-0.3,0.5  c-0.8,0.2-1.6,0.4-2.4,0.6c-0.2,0.1-0.3,0-0.4-0.2c-0.4-1.4-0.8-2.9-1.1-4.3c0-0.1-0.1-0.3-0.2-0.2c-0.7,0.2-1.4,0.3-2.1,0.5  c0.2,0.8,0.4,1.6,0.6,2.3c0.2,0.8,0.4,1.6,0.6,2.3c0.1,0.2,0,0.3-0.2,0.3c-0.8,0.2-1.7,0.4-2.5,0.7c-0.2,0.1-0.3,0-0.4-0.2  c-0.4-1.5-0.8-2.9-1.1-4.3c0-0.1-0.1-0.2-0.1-0.3c-2,0.5-4,1-6,1.5c0-0.4-0.1-0.7-0.1-1c-0.1-0.8-0.1-1.7-0.2-2.5  c0-0.3,0-0.4,0.3-0.4c0.6-0.1,1.3-0.3,1.9-0.5c0.6-0.2,0.9-0.7,0.8-1.4c-1.1-4.4-2.3-8.8-3.4-13.3c-0.2-0.7-0.9-1.2-1.7-1  c-0.8,0.1-1.5,0.4-2.3,0.5c-0.1,0-0.2,0.1-0.3-0.1c-0.3-1-0.5-2-0.8-3C23.8,27.8,23.8,27.7,23.8,27.7z M37.9,44.3c0.1,0,0.2,0,0.2,0  c1.4-0.4,2.8-0.7,4.2-1.3c0.9-0.4,1.8-0.9,2.5-1.6c1.2-1.3,0.7-3.5-0.7-4.2c-0.7-0.4-1.5-0.5-2.3-0.5c-1.8,0-3.5,0.5-5.2,1  c-0.2,0.1-0.2,0.2-0.2,0.4c0.2,0.8,0.4,1.7,0.6,2.5C37.2,41.9,37.5,43.1,37.9,44.3z M40,33.1c0.2-0.1,0.5-0.3,0.7-0.6  c1.2-1.1,1.1-3.2-0.3-4.1c-0.8-0.5-1.7-0.6-2.5-0.5c-1.3,0.1-2.5,0.4-3.7,0.8c-0.2,0.1-0.3,0.2-0.2,0.4c0.5,1.8,0.9,3.6,1.4,5.4  c0.1,0.2,0.1,0.2,0.3,0.2c0.3-0.1,0.6-0.2,1-0.2C37.7,34.2,38.8,33.8,40,33.1z"/>
</svg>