<?xml version="1.0" encoding="utf-8"?>
<!-- Generator: Adobe Illustrator 22.0.1, SVG Export Plug-In . SVG Version: 6.00 Build 0)  -->
<svg width="75px" height="75px" version="1.1" id="Слой_1" xmlns="http://www.w3.org/2000/svg" xmlns:xlink="http://www.w3.org/1999/xlink" x="0px" y="0px"
	 viewBox="0 0 500 500" style="enable-background:new 0 0 500 500;" xml:space="preserve">
<style type="text/css">
	.st0{fill:url(#SVGID_1_);enable-background:new    ;}
	.st1{fill:url(#SVGID_2_);}
	.st2{opacity:0.2;}
	.st3{fill:#FFFFFF;}
</style>
<linearGradient id="SVGID_1_" gradientUnits="userSpaceOnUse" x1="467.0001" y1="467.0001" x2="32.1428" y2="32.1428">
	<stop  offset="0" style="stop-color:#E1E8FF"/>
	<stop  offset="1" style="stop-color:#FFFFFF"/>
</linearGradient>
<path class="st0" d="M389.7,499.1H109.4C49.2,499.1,0,449.9,0,389.7V109.4C0,49.2,49.2,0,109.4,0h280.3
	c60.2,0,109.4,49.2,109.4,109.4v280.3C499.1,449.9,449.9,499.1,389.7,499.1z"/>
<title>Монтажная область 1</title>
<linearGradient id="SVGID_2_" gradientUnits="userSpaceOnUse" x1="79.8571" y1="246.2143" x2="419.8571" y2="246.2143">
	<stop  offset="0" style="stop-color:#6E75B8"/>
	<stop  offset="1" style="stop-color:#495B9D"/>
</linearGradient>
<ellipse class="st1" cx="249.9" cy="246.2" rx="170" ry="174.6"/>
<g>
	<g class="st2">
		<polygon points="255.1,319.9 255.1,389.1 333.4,268.8 		"/>
		<polygon points="330.3,246.5 255.1,109.4 255.1,209.1 		"/>
		<polygon points="255.1,216.7 255.1,302 329.8,254.1 		"/>
		<polygon points="173.4,246.5 248.7,109.4 248.7,209.1 		"/>
		<polygon points="248.7,216.7 248.7,302 174,254.1 		"/>
		<polygon points="248.4,319.9 248.4,389.1 170.4,268.8 		"/>
	</g>
	<g>
		<g>
			<g>
				<polygon class="st3" points="249.5,313.8 249.5,383 327.8,262.7 				"/>
			</g>
			<g>
				<polygon class="st3" points="324.8,240.4 249.5,103.4 249.5,203 				"/>
				<polygon class="st3" points="249.5,210.6 249.5,295.9 324.2,248 				"/>
			</g>
			<g>
				<polygon class="st3" points="167.9,240.4 243.1,103.4 243.1,203 				"/>
				<polygon class="st3" points="243.1,210.6 243.1,295.9 168.4,248 				"/>
			</g>
			<g>
				<polygon class="st3" points="242.9,313.8 242.9,383 164.8,262.7 				"/>
			</g>
		</g>
	</g>
</g>
</svg>
