<svg xmlns="http://www.w3.org/2000/svg" xmlns:xlink="http://www.w3.org/1999/xlink" width="75px" height="75px" version="1.1" id="Слой_1" x="0px" y="0px" viewBox="0 0 500 500" style="enable-background:new 0 0 500 500;" xml:space="preserve">
<style type="text/css">
	.st0{fill:url(#SVGID_1_);enable-background:new    ;}
	.st1{fill:url(#SVGID_2_);}
	.st2{opacity:0.2;}
	.st3{fill:#FFFFFF;}
</style>
<linearGradient id="SVGID_1_" gradientUnits="userSpaceOnUse" x1="467.0001" y1="467.0001" x2="32.1428" y2="32.1428">
	<stop offset="0" style="stop-color:#E1E8FF"/>
	<stop offset="1" style="stop-color:#FFFFFF"/>
</linearGradient>
<path class="st0" d="M389.7,499.1H109.4C49.2,499.1,0,449.9,0,389.7V109.4C0,49.2,49.2,0,109.4,0h280.3  c60.2,0,109.4,49.2,109.4,109.4v280.3C499.1,449.9,449.9,499.1,389.7,499.1z"/>
<title>Монтажная область 1</title>
<linearGradient id="SVGID_2_" gradientUnits="userSpaceOnUse" x1="79.8571" y1="246.2143" x2="419.8571" y2="246.2143">
	<stop offset="0" style="stop-color:#1F75BC"/>
	<stop offset="1" style="stop-color:#175D95"/>
</linearGradient>
<ellipse class="st1" cx="249.9" cy="246.2" rx="170" ry="174.6"/>
<g>
	<g class="st2">
		<path d="M146.6,335.3c3.6-13.2,7-25.5,10.6-38.1c0.3-1.3,2.3-2.3,3.4-2.3c5.9-0.3,12.1,0,18.1,0c39.5,0,78.8,0,118.3,0    c3.1,0,4.6-1.3,5.4-4.8c6.5-24.2,13.4-48.5,20.1-72.7c0.3-1.3,0.5-2.6,1-4.5c-47.8,0-95.3,0-143.3,0c3.6-13.6,7.2-26.2,10.6-38.8    c0.3-1,1.8-1.9,2.8-1.9c3.6-0.3,7.2,0,10.8,0c48.6,0,97.1,0.3,145.4-0.3c14.5-0.3,30,13.9,23.8,40.4c-4.6,19.7-10.6,39.1-16,58.8    c-1.8,6.8-3.6,13.2-5.4,20c-6.7,23.3-20.4,37.5-39.3,43.9c-1.8,0.6-3.6,0.6-5.4,0.6c-52.4,0-104.6,0-157,0    C149.5,335.3,148.2,335.3,146.6,335.3z"/>
		<path d="M237.3,234.5c-3.6,12.9-7.2,24.9-10.8,36.8c-0.3,1-1.8,1.6-2.6,1.6c-27.1,0-54.2,0-81.4,0c-0.3,0-0.8-0.3-1.5-0.6    c3.4-12,6.7-23.6,10.3-35.2c0.3-1,1.8-2.3,2.6-2.3C181.5,234.5,208.9,234.5,237.3,234.5z"/>
	</g>
	<g>
		<g>
			<path class="st3" d="M141.5,328.9c3.6-13.2,7-25.5,10.6-38.1c0.3-1.3,2.3-2.3,3.4-2.3c5.9-0.3,12.1,0,18.1,0     c39.5,0,78.8,0,118.3,0c3.1,0,4.6-1.3,5.4-4.8c6.5-24.2,13.4-48.5,20.1-72.7c0.3-1.3,0.5-2.6,1-4.5c-47.8,0-95.3,0-143.3,0     c3.6-13.6,7.2-26.2,10.6-38.8c0.3-1,1.8-1.9,2.8-1.9c3.6-0.3,7.2,0,10.8,0c48.6,0,97.1,0.3,145.4-0.3c14.5-0.3,30,13.9,23.8,40.4     c-4.6,19.7-10.6,39.1-16,58.8c-1.8,6.8-3.6,13.2-5.4,20c-6.7,23.3-20.4,37.5-39.3,43.9c-1.8,0.6-3.6,0.6-5.4,0.6     c-52.4,0-104.6,0-157,0C144.3,328.9,143,328.9,141.5,328.9z"/>
			<path class="st3" d="M232.1,228c-3.6,12.9-7.2,24.9-10.8,36.8c-0.3,1-1.8,1.6-2.6,1.6c-27.1,0-54.2,0-81.4,0     c-0.3,0-0.8-0.3-1.5-0.6c3.4-12,6.7-23.6,10.3-35.2c0.3-1,1.8-2.3,2.6-2.3C176.3,228,203.7,228,232.1,228z"/>
		</g>
	</g>
</g>
</svg>