<?xml version="1.0" encoding="utf-8"?>
<!-- Generator: Adobe Illustrator 22.0.1, SVG Export Plug-In . SVG Version: 6.00 Build 0)  -->
<svg width="75px" height="75px" version="1.1" id="Слой_1" xmlns="http://www.w3.org/2000/svg" xmlns:xlink="http://www.w3.org/1999/xlink" x="0px" y="0px"
	 viewBox="0 0 75 75" style="enable-background:new 0 0 75 75;" xml:space="preserve">
<style type="text/css">
	.st0{fill:url(#SVGID_1_);enable-background:new    ;}
	.st1{fill:url(#Rectangle-3_1_);}
	.st2{fill:#63CC0E;}
</style>
<linearGradient id="SVGID_1_" gradientUnits="userSpaceOnUse" x1="70.1703" y1="70.1703" x2="4.8297" y2="4.8297">
	<stop  offset="0" style="stop-color:#E1E8FF"/>
	<stop  offset="1" style="stop-color:#FFFFFF"/>
</linearGradient>
<path class="st0" d="M58.6,75H16.4C7.4,75,0,67.6,0,58.6V16.4C0,7.4,7.4,0,16.4,0h42.1C67.6,0,75,7.4,75,16.4v42.1
	C75,67.6,67.6,75,58.6,75z"/>
<g id="Classic">
	<g id="NEO" transform="translate(-4010.000000, -410.000000)">
		<g transform="translate(4010.000000, 410.000000)">
			
				<linearGradient id="Rectangle-3_1_" gradientUnits="userSpaceOnUse" x1="-73.7459" y1="149.7194" x2="-73.9274" y2="149.6085" gradientTransform="matrix(86.3062 0 0 -208.0521 6397.9644 31180.7656)">
				<stop  offset="0" style="stop-color:#63CC0E"/>
				<stop  offset="1" style="stop-color:#A7F21F"/>
			</linearGradient>
			<polygon id="Rectangle-3" class="st1" points="17.4,25.1 33.4,32.1 33.4,60.7 17.4,53.7 			"/>
			<polygon id="Rectangle-4" class="st2" points="40.9,29.9 57.2,24.4 57.2,53.2 40.9,46.1 			"/>
			<polygon id="Rectangle-5" class="st2" points="18,24.5 41.2,16.9 56.9,23.7 33.8,31.4 			"/>
		</g>
	</g>
</g>
</svg>
