<svg xmlns="http://www.w3.org/2000/svg" xmlns:xlink="http://www.w3.org/1999/xlink" width="20px" height="16px" version="1.1" id="Слой_1" x="0px" y="0px" viewBox="0 0 20 16" style="enable-background:new 0 0 20 16;" xml:space="preserve">
<style type="text/css">
	.st0{fill:#FF4B55;}
	.st1{fill:#F5F5F5;}
</style>
<g>
	<path class="st0" d="M18.5,0h-17C0.7,0,0,0.8,0,1.8v12.3c0,1,0.7,1.8,1.5,1.8h17c0.8,0,1.5-0.8,1.5-1.8V1.8C20,0.8,19.3,0,18.5,0z"/>
	<g>
		<path class="st1" d="M11.9,6.6l0.6,0.9l1-0.3c0.1,0,0.1,0,0.1,0.1L13,8.1l0.6,0.9c0,0,0,0.1-0.1,0.1l-1-0.3l-0.6,0.9    c0,0-0.1,0-0.1,0l0-1.1l-1-0.3c-0.1,0-0.1-0.1,0-0.1l1-0.4l0-1.1C11.8,6.5,11.8,6.5,11.9,6.6z"/>
		<path class="st1" d="M8.3,11.4C6.5,11.4,5,9.9,5,8c0-1.9,1.5-3.4,3.3-3.4c0.7,0,1.3,0.2,1.8,0.6c0.1,0.1,0.2-0.1,0.1-0.1    C9.4,4.3,8.3,3.7,7.1,3.8C5,3.9,3.3,5.6,3.1,7.7c-0.2,2.5,1.8,4.5,4.1,4.5c1.2,0,2.2-0.5,3-1.3c0.1-0.1,0-0.2-0.1-0.1    C9.6,11.2,9,11.4,8.3,11.4z"/>
	</g>
</g>
</svg>